# xmcd
# Copyright (C) 1995-1998 Ti Kan
#
# Track frame offsets:
#       150
#       18965
#       35787
#       50707
#       72047
#       85330
#       103125
#       122725
#       141407
#       156737
#       172212
#
# Disc length: 2390 seconds
#
# Revision: 0
# Processed by: cddbd v1.5PL3 Copyright (c) Steve Scherf et al.
# Submitted via: CD-Transfer v1.0
#
DISCID=a709540b
DTITLE=Mother Kingdom - Sleeping Subway
DYEAR=2004
DGENRE=
TTITLE0=Broken
TTITLE1=Machine Tv
TTITLE2=15 Minutes Late
TTITLE3=Shore Of Elements
TTITLE4=Slave In Me
TTITLE5=Andy
TTITLE6=Missing
TTITLE7=Evening
TTITLE8=Passenger
TTITLE9=Dazed
TTITLE10=Lady Moon
EXTD=
EXTT0=
EXTT1=
EXTT2=
EXTT3=
EXTT4=
EXTT5=
EXTT6=
EXTT7=
EXTT8=
EXTT9=
EXTT10=
PLAYORDER=
